<svg width="44" height="53" fill="none" xmlns="http://www.w3.org/2000/svg"><path d="m21.91 52.197-1.52-1.3C18.295 49.147 0 33.386 0 21.857A21.829 21.829 0 0 1 6.417 6.401 21.938 21.938 0 0 1 21.91 0a21.938 21.938 0 0 1 15.493 6.402 21.83 21.83 0 0 1 6.417 15.454c0 11.53-18.295 27.29-20.381 29.05l-1.529 1.29Zm0-47.471A17.213 17.213 0 0 0 9.773 9.749a17.128 17.128 0 0 0-5.035 12.107c0 7.243 11.255 18.813 17.172 24.11 5.917-5.299 17.173-16.876 17.173-24.11A17.129 17.129 0 0 0 34.047 9.75 17.214 17.214 0 0 0 21.91 4.726Z" fill="#fff"/><path d="M21.912 30.52a8.7 8.7 0 0 1-4.826-1.46 8.668 8.668 0 0 1-3.198-3.888 8.644 8.644 0 0 1 1.882-9.442 8.705 8.705 0 0 1 9.465-1.878 8.68 8.68 0 0 1 3.898 3.191 8.648 8.648 0 0 1-1.08 10.94 8.696 8.696 0 0 1-6.141 2.537Zm0-12.995a4.35 4.35 0 0 0-4.012 2.674 4.323 4.323 0 0 0 .941 4.72 4.346 4.346 0 0 0 4.732.94 4.339 4.339 0 0 0 2.681-4.003c0-1.148-.457-2.25-1.272-3.063a4.348 4.348 0 0 0-3.07-1.268Z" fill="#91CE28"/></svg>