<svg width="32" height="32" fill="none" xmlns="http://www.w3.org/2000/svg"><path d="M16 22a6 6 0 1 0 0-12 6 6 0 0 0 0 12Z" stroke="#91CE28" stroke-width="2" stroke-linecap="round" stroke-linejoin="round"/><path d="M22.957 8.136c.32.283.623.586.907.906l3.415.488c.554.964.981 1.996 1.27 3.07l-2.069 2.759s.026.855 0 1.282l2.07 2.76a12.926 12.926 0 0 1-1.272 3.069l-3.414.488s-.586.623-.906.906l-.488 3.415c-.964.554-1.996.981-3.07 1.27l-2.76-2.069c-.427.026-.855.026-1.282 0l-2.76 2.07a12.926 12.926 0 0 1-3.069-1.272l-.488-3.414c-.32-.283-.623-.586-.906-.906L4.72 22.47a12.92 12.92 0 0 1-1.27-3.07l2.068-2.76s-.026-.854 0-1.28L3.45 12.6c.29-1.074.718-2.106 1.273-3.07l3.414-.488c.283-.32.586-.623.906-.906L9.53 4.72a12.92 12.92 0 0 1 3.07-1.27l2.759 2.068c.427-.026.855-.026 1.282 0l2.76-2.07c1.073.29 2.105.718 3.069 1.273l.488 3.414Z" stroke="#91CE28" stroke-width="2" stroke-linecap="round" stroke-linejoin="round"/></svg>