<svg width="44" height="53" viewBox="0 0 44 53" fill="none" xmlns="http://www.w3.org/2000/svg">
<path d="M21.9101 52.1965L20.3902 50.8969C18.295 49.1469 0 33.3855 0 21.8563C0 16.0596 2.30838 10.5004 6.41732 6.40156C10.5263 2.30271 16.0992 0 21.9101 0C27.721 0 33.294 2.30271 37.4029 6.40156C41.5118 10.5004 43.8202 16.0596 43.8202 21.8563C43.8202 33.3855 25.5253 49.1468 23.4387 50.9056L21.9101 52.1965ZM21.9101 4.72603C17.3573 4.73119 12.9924 6.53764 9.77308 9.74906C6.55374 12.9605 4.74285 17.3146 4.73767 21.8563C4.73767 29.0991 15.9935 40.6694 21.9101 45.9651C27.8268 40.6673 39.0826 29.0904 39.0826 21.8563C39.0774 17.3146 37.2665 12.9605 34.0472 9.74906C30.8278 6.53764 26.4629 4.73119 21.9101 4.72603Z" fill="white"/>
<path d="M21.9116 30.5202C20.1938 30.5202 18.5147 30.0121 17.0864 29.0601C15.6582 28.1082 14.545 26.7551 13.8877 25.172C13.2303 23.5889 13.0583 21.8469 13.3934 20.1663C13.7286 18.4858 14.5557 16.942 15.7703 15.7304C16.985 14.5188 18.5325 13.6936 20.2172 13.3593C21.9019 13.0251 23.6482 13.1966 25.2352 13.8524C26.8222 14.5081 28.1786 15.6185 29.1329 17.0433C30.0872 18.468 30.5966 20.143 30.5966 21.8565C30.5966 24.1543 29.6816 26.3579 28.0528 27.9827C26.4241 29.6074 24.215 30.5202 21.9116 30.5202ZM21.9116 17.5247C21.0527 17.5247 20.2131 17.7788 19.499 18.2548C18.7849 18.7307 18.2283 19.4073 17.8996 20.1988C17.571 20.9904 17.485 21.8614 17.6525 22.7016C17.8201 23.5419 18.2337 24.3138 18.841 24.9196C19.4483 25.5254 20.222 25.938 21.0644 26.1052C21.9068 26.2723 22.7799 26.1865 23.5734 25.8586C24.3669 25.5308 25.0451 24.9756 25.5222 24.2632C25.9994 23.5508 26.2541 22.7133 26.2541 21.8565C26.2541 20.7077 25.7966 19.6059 24.9822 18.7935C24.1678 17.9811 23.0633 17.5247 21.9116 17.5247Z" fill="white"/>
</svg>
